<svg xmlns="http://www.w3.org/2000/svg" xmlns:xlink="http://www.w3.org/1999/xlink" contentStyleType="text/css" data-diagram-type="DESCRIPTION" height="916px" preserveAspectRatio="none" style="width:970px;height:916px;background:#FFFFFF;" version="1.1" viewBox="0 0 970 916" width="970px" zoomAndPan="magnify"><title>&#1040;&#1088;&#1093;&#1080;&#1090;&#1077;&#1082;&#1090;&#1091;&#1088;&#1072; &#1087;&#1088;&#1086;&#1077;&#1082;&#1090;&#1072; "&#1048;&#1085;&#1090;&#1077;&#1088;&#1085;&#1077;&#1090;-&#1084;&#1072;&#1075;&#1072;&#1079;&#1080;&#1085;"</title><defs/><g><g class="title" data-source-line="6"><text fill="#000000" font-family="Verdana" font-size="22" font-weight="bold" lengthAdjust="spacing" textLength="536.0244" x="212.4878" y="35.4209">&#1040;&#1088;&#1093;&#1080;&#1090;&#1077;&#1082;&#1090;&#1091;&#1088;&#1072; &#1087;&#1088;&#1086;&#1077;&#1082;&#1090;&#1072; "&#1048;&#1085;&#1090;&#1077;&#1088;&#1085;&#1077;&#1090;-&#1084;&#1072;&#1075;&#1072;&#1079;&#1080;&#1085;"</text></g><!--cluster ?????? (Browser)--><g class="cluster" data-entity="...... .Browser." data-source-line="10" data-uid="ent0003" id="cluster_...... .Browser."><path d="M487.5,158.9094 L629.8193,158.9094 A3.75,3.75 0 0 1 632.3193,161.4094 L639.3193,181.2063 L686.5,181.2063 A2.5,2.5 0 0 1 689,183.7063 L689,259.9994 A2.5,2.5 0 0 1 686.5,262.4994 L487.5,262.4994 A2.5,2.5 0 0 1 485,259.9994 L485,161.4094 A2.5,2.5 0 0 1 487.5,158.9094" fill="#FFFFFF" style="stroke:#000000;stroke-width:1;"/><line style="stroke:#000000;stroke-width:1;" x1="485" x2="639.3193" y1="181.2063" y2="181.2063"/><text fill="#000000" font-family="Verdana" font-size="14" font-weight="bold" lengthAdjust="spacing" textLength="141.3193" x="489" y="173.9045">&#1050;&#1083;&#1080;&#1077;&#1085;&#1090; (Browser)</text></g><!--cluster Spring Boot Application--><g class="cluster" data-entity="Spring Boot Application" data-source-line="14" data-uid="ent0005" id="cluster_Spring Boot Application"><path d="M13.5,286.4994 L201.9414,286.4994 A3.75,3.75 0 0 1 204.4414,288.9994 L211.4414,308.7963 L960.5,308.7963 A2.5,2.5 0 0 1 963,311.2963 L963,826.7794 A2.5,2.5 0 0 1 960.5,829.2794 L13.5,829.2794 A2.5,2.5 0 0 1 11,826.7794 L11,288.9994 A2.5,2.5 0 0 1 13.5,286.4994" fill="#FFFFFF" style="stroke:#000000;stroke-width:1;"/><line style="stroke:#000000;stroke-width:1;" x1="11" x2="211.4414" y1="308.7963" y2="308.7963"/><text fill="#000000" font-family="Verdana" font-size="14" font-weight="bold" lengthAdjust="spacing" textLength="187.4414" x="15" y="301.4945">Spring Boot Application</text></g><!--cluster Controllers (???????????? HTTP)--><g class="cluster" data-entity="Controllers ............. HTTP." data-source-line="18" data-uid="ent0007" id="cluster_Controllers ............. HTTP."><path d="M37.5,399.0894 L308.417,399.0894 A3.75,3.75 0 0 1 310.917,401.5894 L317.917,421.3863 L923.5,421.3863 A2.5,2.5 0 0 1 926,423.8863 L926,483.8894 A2.5,2.5 0 0 1 923.5,486.3894 L37.5,486.3894 A2.5,2.5 0 0 1 35,483.8894 L35,401.5894 A2.5,2.5 0 0 1 37.5,399.0894" fill="#E3F2FD" style="stroke:#000000;stroke-width:1;"/><line style="stroke:#000000;stroke-width:1;" x1="35" x2="317.917" y1="421.3863" y2="421.3863"/><text fill="#000000" font-family="Verdana" font-size="14" font-weight="bold" lengthAdjust="spacing" textLength="269.917" x="39" y="414.0845">Controllers (&#1086;&#1073;&#1088;&#1072;&#1073;&#1072;&#1090;&#1099;&#1074;&#1072;&#1102;&#1090; HTTP)</text></g><!--cluster Services (??????-??????)--><g class="cluster" data-entity="Services .......-......." data-source-line="26" data-uid="ent0013" id="cluster_Services .......-......."><path d="M258.5,510.3894 L460.6475,510.3894 A3.75,3.75 0 0 1 463.1475,512.8894 L470.1475,532.6863 L550.5,532.6863 A2.5,2.5 0 0 1 553,535.1863 L553,691.4794 A2.5,2.5 0 0 1 550.5,693.9794 L258.5,693.9794 A2.5,2.5 0 0 1 256,691.4794 L256,512.8894 A2.5,2.5 0 0 1 258.5,510.3894" fill="#E8F5E9" style="stroke:#000000;stroke-width:1;"/><line style="stroke:#000000;stroke-width:1;" x1="256" x2="470.1475" y1="532.6863" y2="532.6863"/><text fill="#000000" font-family="Verdana" font-size="14" font-weight="bold" lengthAdjust="spacing" textLength="201.1475" x="260" y="525.3845">Services (&#1073;&#1080;&#1079;&#1085;&#1077;&#1089;-&#1083;&#1086;&#1075;&#1080;&#1082;&#1072;)</text></g><!--cluster Repositories (?????? ? ??)--><g class="cluster" data-entity="Repositories ....... . ..." data-source-line="32" data-uid="ent0017" id="cluster_Repositories ....... . ..."><path d="M55.5,717.9794 L271.5859,717.9794 A3.75,3.75 0 0 1 274.0859,720.4794 L281.0859,740.2763 L584.5,740.2763 A2.5,2.5 0 0 1 587,742.7763 L587,802.7794 A2.5,2.5 0 0 1 584.5,805.2794 L55.5,805.2794 A2.5,2.5 0 0 1 53,802.7794 L53,720.4794 A2.5,2.5 0 0 1 55.5,717.9794" fill="#FFF3E0" style="stroke:#000000;stroke-width:1;"/><line style="stroke:#000000;stroke-width:1;" x1="53" x2="281.0859" y1="740.2763" y2="740.2763"/><text fill="#000000" font-family="Verdana" font-size="14" font-weight="bold" lengthAdjust="spacing" textLength="215.0859" x="57" y="732.9745">Repositories (&#1076;&#1086;&#1089;&#1090;&#1091;&#1087; &#1082; &#1041;&#1044;)</text></g><!--entity View--><g class="entity" data-entity="View" data-source-line="11" data-uid="ent0004" id="entity_View"><rect fill="#FFFFFF" height="52.5938" rx="2.5" ry="2.5" style="stroke:#000000;stroke-width:1;" width="171.9766" x="501.01" y="193.9094"/><text fill="#000000" font-family="Verdana" font-size="14" lengthAdjust="spacing" textLength="151.9766" x="511.01" y="216.9045">Thymeleaf Templates</text><text fill="#000000" font-family="Verdana" font-size="14" lengthAdjust="spacing" textLength="113.9072" x="511.01" y="233.2014">(HTML+CSS+JS)</text></g><!--entity Security--><g class="entity" data-entity="Security" data-source-line="16" data-uid="ent0006" id="entity_Security"><rect fill="#F5F5F5" height="52.5938" rx="2.5" ry="2.5" style="stroke:#000000;stroke-width:1;" width="212.6299" x="480.69" y="321.4994"/><text fill="#000000" font-family="Verdana" font-size="14" lengthAdjust="spacing" textLength="187.25" x="490.69" y="344.4945">Spring Security FilterChain</text><text fill="#000000" font-family="Verdana" font-size="14" lengthAdjust="spacing" textLength="192.6299" x="490.69" y="360.7914">(&#1083;&#1086;&#1075;&#1080;&#1085; + &#1087;&#1088;&#1086;&#1074;&#1077;&#1088;&#1082;&#1072; &#1088;&#1086;&#1083;&#1077;&#1081;)</text></g><!--entity ProductController--><g class="entity" data-entity="ProductController" data-source-line="19" data-uid="ent0008" id="entity_ProductController"><rect fill="#FFFFFF" height="36.2969" rx="2.5" ry="2.5" style="stroke:#000000;stroke-width:1;" width="142.8828" x="426.56" y="434.0894"/><text fill="#000000" font-family="Verdana" font-size="14" lengthAdjust="spacing" textLength="122.8828" x="436.56" y="457.0845">ProductController</text></g><!--entity CartController--><g class="entity" data-entity="CartController" data-source-line="20" data-uid="ent0009" id="entity_CartController"><rect fill="#FFFFFF" height="36.2969" rx="2.5" ry="2.5" style="stroke:#000000;stroke-width:1;" width="118.7725" x="50.61" y="434.0894"/><text fill="#000000" font-family="Verdana" font-size="14" lengthAdjust="spacing" textLength="98.7725" x="60.61" y="457.0845">CartController</text></g><!--entity AdminProductController--><g class="entity" data-entity="AdminProductController" data-source-line="21" data-uid="ent0010" id="entity_AdminProductController"><rect fill="#FFFFFF" height="36.2969" rx="2.5" ry="2.5" style="stroke:#000000;stroke-width:1;" width="187.7471" x="204.13" y="434.0894"/><text fill="#000000" font-family="Verdana" font-size="14" lengthAdjust="spacing" textLength="167.7471" x="214.13" y="457.0845">AdminProductController</text></g><!--entity CabinetController--><g class="entity" data-entity="CabinetController" data-source-line="22" data-uid="ent0011" id="entity_CabinetController"><rect fill="#FFFFFF" height="36.2969" rx="2.5" ry="2.5" style="stroke:#000000;stroke-width:1;" width="143.2793" x="604.36" y="434.0894"/><text fill="#000000" font-family="Verdana" font-size="14" lengthAdjust="spacing" textLength="123.2793" x="614.36" y="457.0845">CabinetController</text></g><!--entity LoginController--><g class="entity" data-entity="LoginController" data-source-line="23" data-uid="ent0012" id="entity_LoginController"><rect fill="#FFFFFF" height="36.2969" rx="2.5" ry="2.5" style="stroke:#000000;stroke-width:1;" width="127.1875" x="782.41" y="434.0894"/><text fill="#000000" font-family="Verdana" font-size="14" lengthAdjust="spacing" textLength="107.1875" x="792.41" y="457.0845">LoginController</text></g><!--entity ProductService--><g class="entity" data-entity="ProductService" data-source-line="27" data-uid="ent0014" id="entity_ProductService"><rect fill="#FFFFFF" height="36.2969" rx="2.5" ry="2.5" style="stroke:#000000;stroke-width:1;" width="125.4512" x="272.27" y="641.6894"/><text fill="#000000" font-family="Verdana" font-size="14" lengthAdjust="spacing" textLength="105.4512" x="282.27" y="664.6845">ProductService</text></g><!--entity CartService--><g class="entity" data-entity="CartService" data-source-line="28" data-uid="ent0015" id="entity_CartService"><rect fill="#FFFFFF" height="36.2969" rx="2.5" ry="2.5" style="stroke:#000000;stroke-width:1;" width="101.3408" x="272.33" y="545.3894"/><text fill="#000000" font-family="Verdana" font-size="14" lengthAdjust="spacing" textLength="81.3408" x="282.33" y="568.3845">CartService</text></g><!--entity UserService--><g class="entity" data-entity="UserService" data-source-line="29" data-uid="ent0016" id="entity_UserService"><rect fill="#FFFFFF" height="36.2969" rx="2.5" ry="2.5" style="stroke:#000000;stroke-width:1;" width="103.6514" x="433.17" y="641.6894"/><text fill="#000000" font-family="Verdana" font-size="14" lengthAdjust="spacing" textLength="83.6514" x="443.17" y="664.6845">UserService</text></g><!--entity ProductRepository--><g class="entity" data-entity="ProductRepository" data-source-line="33" data-uid="ent0018" id="entity_ProductRepository"><rect fill="#FFFFFF" height="36.2969" rx="2.5" ry="2.5" style="stroke:#000000;stroke-width:1;" width="148.7822" x="260.61" y="752.9794"/><text fill="#000000" font-family="Verdana" font-size="14" lengthAdjust="spacing" textLength="128.7822" x="270.61" y="775.9745">ProductRepository</text></g><!--entity CartItemRepository--><g class="entity" data-entity="CartItemRepository" data-source-line="34" data-uid="ent0019" id="entity_CartItemRepository"><rect fill="#FFFFFF" height="36.2969" rx="2.5" ry="2.5" style="stroke:#000000;stroke-width:1;" width="156.541" x="68.73" y="752.9794"/><text fill="#000000" font-family="Verdana" font-size="14" lengthAdjust="spacing" textLength="136.541" x="78.73" y="775.9745">CartItemRepository</text></g><!--entity UserRepository--><g class="entity" data-entity="UserRepository" data-source-line="35" data-uid="ent0020" id="entity_UserRepository"><rect fill="#FFFFFF" height="36.2969" rx="2.5" ry="2.5" style="stroke:#000000;stroke-width:1;" width="126.9824" x="444.51" y="752.9794"/><text fill="#000000" font-family="Verdana" font-size="14" lengthAdjust="spacing" textLength="106.9824" x="454.51" y="775.9745">UserRepository</text></g><!--entity User--><g class="entity" data-entity="User" data-source-line="8" data-uid="ent0002" id="entity_User"><ellipse cx="587.0014" cy="65.6094" fill="#FFFFFF" rx="8" ry="8" style="stroke:#000000;stroke-width:1;"/><path d="M587.0014,73.6094 L587.0014,100.6094 M574.0014,81.6094 L600.0014,81.6094 M587.0014,100.6094 L574.0014,115.6094 M587.0014,100.6094 L600.0014,115.6094" fill="none" style="stroke:#000000;stroke-width:1;"/><text fill="#000000" font-family="Verdana" font-size="14" lengthAdjust="spacing" textLength="256.4229" x="458.79" y="130.6045">&#1055;&#1086;&#1083;&#1100;&#1079;&#1086;&#1074;&#1072;&#1090;&#1077;&#1083;&#1100; (&#1087;&#1086;&#1082;&#1091;&#1087;&#1072;&#1090;&#1077;&#1083;&#1100;/&#1072;&#1076;&#1084;&#1080;&#1085;)</text></g><!--entity DB--><g class="entity" data-entity="DB" data-source-line="39" data-uid="ent0021" id="entity_DB"><path d="M279.66,864.3294 C279.66,854.3294 335.0028,854.3294 335.0028,854.3294 C335.0028,854.3294 390.3455,854.3294 390.3455,864.3294 L390.3455,889.6263 C390.3455,899.6263 335.0028,899.6263 335.0028,899.6263 C335.0028,899.6263 279.66,899.6263 279.66,889.6263 L279.66,864.3294" fill="#ECEFF1" style="stroke:#000000;stroke-width:1;"/><path d="M279.66,864.3294 C279.66,874.3294 335.0028,874.3294 335.0028,874.3294 C335.0028,874.3294 390.3455,874.3294 390.3455,864.3294" fill="none" style="stroke:#000000;stroke-width:1;"/><text fill="#000000" font-family="Verdana" font-size="14" lengthAdjust="spacing" textLength="90.6855" x="289.66" y="891.3245">H2 Database</text></g><g class="entity" data-entity="GMN41" data-source-line="73" data-uid="ent0042" id="entity_GMN41"><path d="M425.67,849.2794 L425.67,880.6794 L390.65,884.6794 L425.67,888.6794 L425.67,904.6778 A0,0 0 0 0 425.67,904.6778 L754.3346,904.6778 A0,0 0 0 0 754.3346,904.6778 L754.3346,859.2794 L744.3346,849.2794 L425.67,849.2794 A0,0 0 0 0 425.67,849.2794" fill="#FFFFFF" style="stroke:#000000;stroke-width:1;"/><path d="M744.3346,849.2794 L744.3346,859.2794 L754.3346,859.2794 L744.3346,849.2794" fill="#FFFFFF" style="stroke:#000000;stroke-width:1;"/><text fill="#000000" font-family="Verdana" font-size="13" lengthAdjust="spacing" textLength="307.6646" x="431.67" y="866.3463">&#1050;&#1086;&#1088;&#1079;&#1080;&#1085;&#1072; &#1093;&#1088;&#1072;&#1085;&#1080;&#1090;&#1089;&#1103; &#1074; &#1041;&#1044; (&#1090;&#1072;&#1073;&#1083;&#1080;&#1094;&#1072; cart_items),</text><text fill="#000000" font-family="Verdana" font-size="13" lengthAdjust="spacing" textLength="266.8174" x="431.67" y="881.4791">&#1087;&#1086;&#1101;&#1090;&#1086;&#1084;&#1091; &#1089;&#1086;&#1093;&#1088;&#1072;&#1085;&#1103;&#1077;&#1090;&#1089;&#1103; &#1084;&#1077;&#1078;&#1076;&#1091; &#1079;&#1072;&#1093;&#1086;&#1076;&#1072;&#1084;&#1080;</text><text fill="#000000" font-family="Verdana" font-size="13" lengthAdjust="spacing" textLength="251.1768" x="431.67" y="896.6119">&#1076;&#1083;&#1103; &#1086;&#1076;&#1085;&#1086;&#1075;&#1086; &#1080; &#1090;&#1086;&#1075;&#1086; &#1078;&#1077; &#1087;&#1086;&#1083;&#1100;&#1079;&#1086;&#1074;&#1072;&#1090;&#1077;&#1083;&#1103;.</text></g><!--link User to View--><g class="link" data-entity-1="User" data-entity-2="View" data-link-type="dependency" data-source-line="42" data-uid="lnk22" id="link_User_View"><path d="M587,134.1094 C587,153.4494 587,170.3294 587,187.6494" fill="none" id="User-to-View" style="stroke:#000000;stroke-width:1;"/><polygon fill="#000000" points="587,193.6494,591,184.6494,587,188.6494,583,184.6494,587,193.6494" style="stroke:#000000;stroke-width:1;"/></g><!--link View to Security--><g class="link" data-entity-1="View" data-entity-2="Security" data-link-type="dependency" data-source-line="43" data-uid="lnk23" id="link_View_Security"><path d="M587,246.9494 C587,268.7294 587,293.3194 587,315.0794" fill="none" id="View-to-Security" style="stroke:#000000;stroke-width:1;"/><polygon fill="#000000" points="587,321.0794,591,312.0794,587,316.0794,583,312.0794,587,321.0794" style="stroke:#000000;stroke-width:1;"/></g><!--link Security to ProductController--><g class="link" data-entity-1="Security" data-entity-2="ProductController" data-link-type="dependency" data-source-line="44" data-uid="lnk24" id="link_Security_ProductController"><path d="M525.06,374.4194 C525.06,393.0394 525.06,411.4194 525.06,427.8894" fill="none" id="Security-to-ProductController" style="stroke:#000000;stroke-width:1;"/><polygon fill="#000000" points="525.06,433.8894,529.06,424.8894,525.06,428.8894,521.06,424.8894,525.06,433.8894" style="stroke:#000000;stroke-width:1;"/></g><!--link Security to CartController--><g class="link" data-entity-1="Security" data-entity-2="CartController" data-link-type="dependency" data-source-line="45" data-uid="lnk25" id="link_Security_CartController"><path d="M480.25,339.6794 C339.64,339.6794 110,339.6794 110,339.6794 C110,339.6794 110,395.6794 110,427.6594" fill="none" id="Security-to-CartController" style="stroke:#000000;stroke-width:1;"/><polygon fill="#000000" points="110,433.6594,114,424.6594,110,428.6594,106,424.6594,110,433.6594" style="stroke:#000000;stroke-width:1;"/></g><!--link Security to AdminProductController--><g class="link" data-entity-1="Security" data-entity-2="AdminProductController" data-link-type="dependency" data-source-line="46" data-uid="lnk26" id="link_Security_AdminProductController"><path d="M480.21,356.6794 C397.88,356.6794 298,356.6794 298,356.6794 C298,356.6794 298,400.0494 298,427.8194" fill="none" id="Security-to-AdminProductController" style="stroke:#000000;stroke-width:1;"/><polygon fill="#000000" points="298,433.8194,302,424.8194,298,428.8194,294,424.8194,298,433.8194" style="stroke:#000000;stroke-width:1;"/></g><!--link Security to CabinetController--><g class="link" data-entity-1="Security" data-entity-2="CabinetController" data-link-type="dependency" data-source-line="47" data-uid="lnk27" id="link_Security_CabinetController"><path d="M648.84,374.4194 C648.84,393.0394 648.84,411.4194 648.84,427.8894" fill="none" id="Security-to-CabinetController" style="stroke:#000000;stroke-width:1;"/><polygon fill="#000000" points="648.84,433.8894,652.84,424.8894,648.84,428.8894,644.84,424.8894,648.84,433.8894" style="stroke:#000000;stroke-width:1;"/></g><!--link Security to LoginController--><g class="link" data-entity-1="Security" data-entity-2="LoginController" data-link-type="dependency" data-source-line="48" data-uid="lnk28" id="link_Security_LoginController"><path d="M693.47,348.6794 C764.9,348.6794 846,348.6794 846,348.6794 C846,348.6794 846,397.9394 846,427.7294" fill="none" id="Security-to-LoginController" style="stroke:#000000;stroke-width:1;"/><polygon fill="#000000" points="846,433.7294,850,424.7294,846,428.7294,842,424.7294,846,433.7294" style="stroke:#000000;stroke-width:1;"/></g><!--link ProductController to ProductService--><g class="link" data-entity-1="ProductController" data-entity-2="ProductService" data-link-type="dependency" data-source-line="51" data-uid="lnk29" id="link_ProductController_ProductService"><path d="M426.42,452.6794 C413.25,452.6794 403.56,452.6794 403.56,452.6794 C403.56,452.6794 403.56,660.6794 403.56,660.6794 C403.56,660.6794 407.53,660.6794 404.18,660.6794" fill="none" id="ProductController-to-ProductService" style="stroke:#000000;stroke-width:1;"/><polygon fill="#000000" points="398.18,660.6794,407.18,664.6794,403.18,660.6794,407.18,656.6794,398.18,660.6794" style="stroke:#000000;stroke-width:1;"/></g><!--link CartController to CartService--><g class="link" data-entity-1="CartController" data-entity-2="CartService" data-link-type="dependency" data-source-line="52" data-uid="lnk30" id="link_CartController_CartService"><path d="M119.06,470.6094 C119.06,500.8194 119.06,557.6794 119.06,557.6794 C119.06,557.6794 205.66,557.6794 266.06,557.6794" fill="none" id="CartController-to-CartService" style="stroke:#000000;stroke-width:1;"/><polygon fill="#000000" points="272.06,557.6794,263.06,553.6794,267.06,557.6794,263.06,561.6794,272.06,557.6794" style="stroke:#000000;stroke-width:1;"/></g><!--link AdminProductController to ProductService--><g class="link" data-entity-1="AdminProductController" data-entity-2="ProductService" data-link-type="dependency" data-source-line="53" data-uid="lnk31" id="link_AdminProductController_ProductService"><path d="M382.77,470.6694 C382.77,510.0594 382.77,596.0994 382.77,635.4494" fill="none" id="AdminProductController-to-ProductService" style="stroke:#000000;stroke-width:1;"/><polygon fill="#000000" points="382.77,641.4494,386.77,632.4494,382.77,636.4494,378.77,632.4494,382.77,641.4494" style="stroke:#000000;stroke-width:1;"/></g><!--link Security to UserService--><g class="link" data-entity-1="Security" data-entity-2="UserService" data-link-type="dependency" data-source-line="58" data-uid="lnk32" id="link_Security_UserService"><path d="M587.93,374.4694 C587.93,450.1394 587.93,660.6794 587.93,660.6794 C587.93,660.6794 568.59,660.6794 543.07,660.6794" fill="none" id="Security-to-UserService" style="stroke:#000000;stroke-width:1;"/><polygon fill="#000000" points="537.07,660.6794,546.07,664.6794,542.07,660.6794,546.07,656.6794,537.07,660.6794" style="stroke:#000000;stroke-width:1;"/></g><!--link ProductService to ProductRepository--><g class="link" data-entity-1="ProductService" data-entity-2="ProductRepository" data-link-type="dependency" data-source-line="61" data-uid="lnk33" id="link_ProductService_ProductRepository"><path d="M335,678.4594 C335,699.1294 335,726.2694 335,746.8094" fill="none" id="ProductService-to-ProductRepository" style="stroke:#000000;stroke-width:1;"/><polygon fill="#000000" points="335,752.8094,339,743.8094,335,747.8094,331,743.8094,335,752.8094" style="stroke:#000000;stroke-width:1;"/></g><!--link CartService to CartItemRepository--><g class="link" data-entity-1="CartService" data-entity-2="CartItemRepository" data-link-type="dependency" data-source-line="62" data-uid="lnk34" id="link_CartService_CartItemRepository"><path d="M272.02,569.6794 C243.93,569.6794 214.7,569.6794 214.7,569.6794 C214.7,569.6794 214.7,696.6694 214.7,746.5394" fill="none" id="CartService-to-CartItemRepository" style="stroke:#000000;stroke-width:1;"/><polygon fill="#000000" points="214.7,752.5394,218.7,743.5394,214.7,747.5394,210.7,743.5394,214.7,752.5394" style="stroke:#000000;stroke-width:1;"/></g><!--link CartService to ProductService--><g class="link" data-entity-1="CartService" data-entity-2="ProductService" data-link-type="dependency" data-source-line="63" data-uid="lnk35" id="link_CartService_ProductService"><path d="M323,582.1094 C323,599.1594 323,618.2894 323,635.3294" fill="none" id="CartService-to-ProductService" style="stroke:#000000;stroke-width:1;"/><polygon fill="#000000" points="323,641.3294,327,632.3294,323,636.3294,319,632.3294,323,641.3294" style="stroke:#000000;stroke-width:1;"/></g><!--link CartService to UserService--><g class="link" data-entity-1="CartService" data-entity-2="UserService" data-link-type="dependency" data-source-line="64" data-uid="lnk36" id="link_CartService_UserService"><path d="M373.81,563.6794 C421.32,563.6794 485,563.6794 485,563.6794 C485,563.6794 485,607.3494 485,635.2994" fill="none" id="CartService-to-UserService" style="stroke:#000000;stroke-width:1;"/><polygon fill="#000000" points="485,641.2994,489,632.2994,485,636.2994,481,632.2994,485,641.2994" style="stroke:#000000;stroke-width:1;"/></g><!--link UserService to UserRepository--><g class="link" data-entity-1="UserService" data-entity-2="UserRepository" data-link-type="dependency" data-source-line="65" data-uid="lnk37" id="link_UserService_UserRepository"><path d="M490.67,678.4594 C490.67,699.1294 490.67,726.2694 490.67,746.8094" fill="none" id="UserService-to-UserRepository" style="stroke:#000000;stroke-width:1;"/><polygon fill="#000000" points="490.67,752.8094,494.67,743.8094,490.67,747.8094,486.67,743.8094,490.67,752.8094" style="stroke:#000000;stroke-width:1;"/></g><!--link ProductRepository to DB--><g class="link" data-entity-1="ProductRepository" data-entity-2="DB" data-link-type="dependency" data-source-line="68" data-uid="lnk38" id="link_ProductRepository_DB"><path d="M335,789.5694 C335,807.4594 335,828.6594 335,847.9594" fill="none" id="ProductRepository-to-DB" style="stroke:#000000;stroke-width:1;"/><polygon fill="#000000" points="335,853.9594,339,844.9594,335,848.9594,331,844.9594,335,853.9594" style="stroke:#000000;stroke-width:1;"/></g><!--link CartItemRepository to DB--><g class="link" data-entity-1="CartItemRepository" data-entity-2="DB" data-link-type="dependency" data-source-line="69" data-uid="lnk39" id="link_CartItemRepository_DB"><path d="M147,789.6894 C147,820.2194 147,877.6794 147,877.6794 C147,877.6794 217.92,877.6794 273.36,877.6794" fill="none" id="CartItemRepository-to-DB" style="stroke:#000000;stroke-width:1;"/><polygon fill="#000000" points="279.36,877.6794,270.36,873.6794,274.36,877.6794,270.36,881.6794,279.36,877.6794" style="stroke:#000000;stroke-width:1;"/></g><!--link UserRepository to DB--><g class="link" data-entity-1="UserRepository" data-entity-2="DB" data-link-type="dependency" data-source-line="70" data-uid="lnk40" id="link_UserRepository_DB"><path d="M444.18,771.6794 C429.21,771.6794 417.53,771.6794 417.53,771.6794 C417.53,771.6794 417.53,869.6794 417.53,869.6794 C417.53,869.6794 411.44,869.6794 396.51,869.6794" fill="none" id="UserRepository-to-DB" style="stroke:#000000;stroke-width:1;"/><polygon fill="#000000" points="390.51,869.6794,399.51,873.6794,395.51,869.6794,399.51,865.6794,390.51,869.6794" style="stroke:#000000;stroke-width:1;"/></g><!--SRC=[ZLRRRjj647tVhzWw3v7XkfS40TgN0h5amYrI88YKFXKeQ6aZBK9n2NBJG2WCn7AJ84XQDq205dbf-mUoQrkgPCc_iFj7FREK69AIXKgGICuCP-QSFJlaHxeZke97WIz3bZoMOUJ7VfStLJTIeGXrNVS2mMFHr7xO3aGk992XqBr8S1NhZc9QHLmhlg-qLbtUadIBL25ZMcfaCB_PP_Qv6Tc-EJTZsxT7zfaPS7E5momruNB3_66c50Bh5F_zRNDf1kOV_8PcPAORZFbDhM84_edR9lODx3DpQWOkBwvvnLp1ChP7E6RMJv7W3AcGOdE3-mb_c8YOiSXlFlRR0jdUcmcSvrISLtPYzHH-HFx4E3uP6NoZqUbrHI3yHxmXkY1DY-JxiBBN-FRULhLUt_gcdgR_Jegdx21Ne1x5Ccpp7QKqlnj5WMpwn0vLS2KoWhFGkcW-YQNkSKy6MiJL3XO8fT3d37m02DzQi7Vg-1g3FtSv0Ov_qpwo93UyE_HDYsLTLLMeOnK48ax0syoSq9gO4-BDldQi_We-zXgD-qXtO_UsTykhpJafDdq_LgqdJVqXtugOgX-l3xZRwihm_sNQ9-sjZRcdsZ8iHHoKuDT5_ADi2i9-0aQ7JdA7snd5ODJX_iAxi_lbEjppHDU0ljvBAinxomq-495A9FGkNPDdPcOFQUkOAsx6tBmrxwW_p_DkxtwshhyiJ- -Q5h_MehisY3ej1HoGm5k-zlVz1BtktUAr-OMJNcq7p5LtFUzpncvoypk4vTGA1Ayvo3t31EZJoP2dkWEieHCofi8fy64Hi1ldYfwG1pTMx4iNSuxR5kBUPDGTtzx-AjrtzEUk5W4ismPaNLPOmLsIQS5tZK9BzvV5MN2NTKdSl5y95S7sq84znTW4QsofSXxFGaV5_ZD82_Tg2AiItLo6mZ52P-Q21ZEdpSAfCJTl2vCOKpYdR5hD-TG_igzml4mNzyoSeqQ93ufCio64fwESXdywZbnXjmLeJarH_OKzuXz68gHJMPg9xZdWgBN7yww7L1nvtcmI_zdw5D50ZrIkW8Hw6JjJJMXV1adceQeZJYfsMEaXDh8_fqF4li1nLDH1VkkJ1lxEhxHRUn8vDJDq3yqPvKUIuYBbrostFNCBdWcWjCNB8IjKb7Vdsyqpil3bCXEQlrRrJgZeuGBhW2qrxLBLTjXohmjFiSx2oaAbyO8YsntDrIEoq7v2nU5S4VPvffO-o3rsqmMZ4xEaxvvs4z8H0fke_8D4wMJpOqRjsr-S6Y-XCGXZjaXaZqaOQQfB0BsWMKQY6k05XtGze3SDXXEdEB9CdK8Xw54gS7T-GLAyMlaQS_m94s6B4xJ_0000]--></g></svg>